<?xml version="1.0" standalone="no"?><!DOCTYPE svg PUBLIC "-//W3C//DTD SVG 1.1//EN" "http://www.w3.org/Graphics/SVG/1.1/DTD/svg11.dtd"><svg t="1702223812039" class="icon" viewBox="0 0 1024 1024" version="1.1" xmlns="http://www.w3.org/2000/svg" p-id="38739" xmlns:xlink="http://www.w3.org/1999/xlink" width="200" height="200"><path d="M897.7 544.7H756.2c-15 0-27.2-12.2-27.2-27.2v-10.9c0-15 12.2-27.2 27.2-27.2h141.5c15 0 27.2 12.2 27.2 27.2v10.9c0 15-12.2 27.2-27.2 27.2zM717.6 358.1c-10.6 10.6-27.9 10.6-38.5 0l-7.7-7.7c-10.6-10.6-10.6-27.9 0-38.5l100.1-100.1c10.6-10.6 27.9-10.6 38.5 0l7.7 7.7c10.6 10.6 10.6 27.9 0 38.5L717.6 358.1z m-199.4-52.9h-10.9c-15 0-27.2-12.2-27.2-27.2V136.4c0-15 12.2-27.2 27.2-27.2h10.9c15 0 27.2 12.2 27.2 27.2V278c0 15-12.1 27.2-27.2 27.2z m-172.4 52.9c-10.7 10.6-27.9 10.6-38.6 0L206.8 258c-10.6-10.6-10.6-27.9 0-38.5l7.7-7.7c10.7-10.6 27.9-10.6 38.6 0l100.4 100.1c10.6 10.6 10.7 27.8 0.1 38.4l-0.1 0.1-7.7 7.7z m-50.1 148.5v10.9c0 15-12.2 27.2-27.2 27.2H126.4c-15 0.1-27.3-12.1-27.3-27.1v-11c0-15 12.2-27.2 27.2-27.2h142.1c15.1-0.1 27.3 12 27.3 27.2 0-0.1 0-0.1 0 0z m11.5 159.3c10.7-10.6 27.9-10.6 38.6 0l7.7 7.7c10.6 10.6 10.7 27.8 0.1 38.4l-0.1 0.1-100.4 100.1c-10.7 10.6-27.9 10.6-38.6 0l-7.7-7.7c-10.6-10.6-10.7-27.8-0.1-38.4l0.1-0.1 100.4-100.1z m200.1 52.9h11.1c15 0 27.2 12.2 27.2 27.2v141.5c0 15-12.2 27.2-27.2 27.2h-11.1c-15 0-27.2-12.2-27.2-27.2V746c0-15 12.2-27.2 27.2-27.2z m172.5-52.9c10.7-10.6 27.9-10.6 38.6 0L818.8 766c10.6 10.6 10.6 27.9 0 38.5l-7.7 7.7c-10.7 10.6-27.9 10.6-38.6 0L672 712.1c-10.6-10.6-10.7-27.8-0.1-38.4l0.1-0.1 7.8-7.7zM343.3 512c0 93.2 75.5 168.8 168.7 168.8 93.2 0 168.8-75.5 168.8-168.7v-0.2c0-93.2-75.5-168.7-168.7-168.8S343.3 418.7 343.3 512c0-0.1 0 0 0 0z" fill="#111111" p-id="38740"></path></svg>